<svg width="129" height="129" viewBox="0 0 129 129" fill="none" xmlns="http://www.w3.org/2000/svg">
<path d="M47.5 121.03L64.6421 101.189L81.5 121.03L69.0159 127.116C66.2552 128.462 63.0238 128.473 60.2543 127.145L47.5 121.03Z" fill="#6BB6FF"/>
<path d="M64.5 122.724C64.5 125.63 67.5452 127.55 70.1977 126.317L124.471 101.079C126.93 99.9355 128.5 97.4848 128.5 94.791V26.0845C128.5 23.1783 125.455 21.258 122.802 22.4915L66.8023 48.5326C65.3973 49.1859 64.5 50.5863 64.5 52.1256V122.724Z" fill="#0483FF"/>
<path d="M0.5 26.0845C0.5 23.1783 3.54524 21.258 6.19774 22.4915L62.1977 48.5326C63.6027 49.1859 64.5 50.5863 64.5 52.1256V122.724C64.5 125.63 61.4548 127.55 58.8023 126.317L5.10453 101.346C2.29466 100.04 0.5 97.239 0.5 94.1604V26.0845Z" fill="#6BB6FF"/>
<path d="M3.10822 29.6391C-0.201704 28.2419 -0.11535 23.5584 3.24386 22.2821L58.7776 1.18312C62.4621 -0.216709 66.5379 -0.216709 70.2224 1.18312L125.756 22.2821C129.115 23.5584 129.202 28.2419 125.892 29.6392L67.2409 54.3984C65.4896 55.1377 63.5104 55.1377 61.7591 54.3984L3.10822 29.6391Z" fill="#389DFF"/>
</svg>
