<svg class="pencil" width="23" height="23" viewBox="0 0 23 23" fill="none" xmlns="http://www.w3.org/2000/svg">
<path d="M18.4548 10.3897L18.9631 9.88156L17.4383 8.35717L14.645 5.5647L13.1202 4.04031L12.6119 4.54844L11.5954 5.5647L2.63542 14.5222C2.16763 14.9898 1.82578 15.5699 1.63687 16.204L0.0445827 21.618C-0.0678667 21.9957 0.0355867 22.405 0.318959 22.6837C0.602332 22.9625 1.00715 23.066 1.38498 22.958L6.79604 21.3662C7.43026 21.1773 8.0105 20.8356 8.47829 20.3679L17.4383 11.4104L18.4548 10.3897ZM7.19636 17.9622L6.78705 18.9829C6.60713 19.1223 6.40472 19.2258 6.18882 19.2932L2.6714 20.3275L3.70593 16.8155C3.76891 16.5952 3.87686 16.3928 4.01629 16.2175L5.03734 15.8083V17.2472C5.03734 17.6429 5.36119 17.9667 5.75701 17.9667H7.19636V17.9622ZM16.3138 0.843137L15.6661 1.49516L14.6495 2.51142L14.1367 3.01955L15.6616 4.54394L18.4548 7.33641L19.9796 8.8608L20.4879 8.35267L21.5044 7.33641L22.1566 6.68439C23.2811 5.56021 23.2811 3.73903 22.1566 2.61485L20.3889 0.843137C19.2644 -0.281046 17.4428 -0.281046 16.3183 0.843137H16.3138ZM14.1817 8.39764L7.70463 14.8729C7.42576 15.1517 6.96697 15.1517 6.68809 14.8729C6.40922 14.5941 6.40922 14.1355 6.68809 13.8567L13.1652 7.38138C13.4441 7.10258 13.9028 7.10258 14.1817 7.38138C14.4606 7.66018 14.4606 8.11884 14.1817 8.39764Z" fill="black"/>
</svg>
